<?xml version="1.0"?>
<svg xmlns="http://www.w3.org/2000/svg" height="512px" viewBox="-18 0 500 500" width="512px" class=""><g><path d="m330 137c0-3.867188-3.132812-7-7-7h-27c-3.867188 0-7 3.132812-7 7v80c0 3.867188 3.132812 7 7 7h27c3.867188 0 7-3.132812 7-7zm-15 73h-12v-66h12zm0 0" data-original="#000000" class="active-path" data-old_color="#ffffff" fill="#ffffff"/><path d="m309.144531 85.578125c-11.207031 0-20.289062 9.085937-20.289062 20.289063 0 11.207031 9.082031 20.289062 20.289062 20.289062s20.289063-9.082031 20.289063-20.289062c-.015625-11.199219-9.089844-20.277344-20.289063-20.289063zm0 26.578125c-3.472656 0-6.289062-2.816406-6.289062-6.289062 0-3.472657 2.816406-6.289063 6.289062-6.289063 3.472657 0 6.289063 2.816406 6.289063 6.289063-.007813 3.46875-2.820313 6.28125-6.289063 6.289062zm0 0" data-original="#000000" class="active-path" data-old_color="#ffffff" fill="#ffffff"/><path d="m457.539062 126.152344-27.21875-2.625c-2.976562-11.390625-7.585937-22.289063-13.6875-32.355469l17.234376-20.808594c2.296874-2.773437 2.113281-6.835937-.421876-9.390625l-30.199218-30.507812c-2.550782-2.578125-6.652344-2.78125-9.445313-.464844l-20.859375 17.300781c-10.097656-6.042969-20.992187-10.636719-32.367187-13.648437l-2.625-27.203125c-.335938-3.613281-3.339844-6.3945315-6.96875-6.449219h-43.296875c-3.628906.0546875-6.632813 2.835938-6.96875 6.445312l-2.625 27.140626c-11.40625 2.957031-22.320313 7.554687-32.40625 13.644531l-20.824219-17.246094c-2.78125-2.300781-6.859375-2.109375-9.414063.445313l-30.566406 30.597656c-.796875.847656-1.386718 1.863281-1.734375 2.972656h-135.015625c-26.390625 0-48.128906 21.28125-48.128906 47.671875v338.328125h.3125c-.019531 1-.042969 1.347656-.042969 1.910156.011719 26.464844 21.394531 47.953125 47.859375 48.089844h273.015625c3.882813-.128906 6.941407-3.359375 6.855469-7.246094v-74.753906h14.941406c3.871094.019531 7.027344-3.09375 7.058594-6.964844v-138.042968c8.023438-2.78125 15.738281-6.390626 23.011719-10.773438l20.800781 17.261719c2.777344 2.304687 6.851562 2.117187 9.40625-.433594l30.5625-30.5c2.558594-2.554687 2.75-6.640625.441406-9.425781l-17.28125-20.839844c6.035156-10.085938 10.632813-20.964844 13.660156-32.324219l26.941407-2.621093c3.617187-.339844 6.398437-3.34375 6.457031-6.972657v-43.242187c-.0625-3.632813-2.84375-6.632813-6.460938-6.96875zm-443.539062-14.480469c0-18.671875 15.457031-33.671875 34.128906-33.671875h15.871094v326h-15.871094c-12.78125.066406-25.03125 5.128906-34.128906 14.105469zm300 374.328125h-265.871094c-18.777344 0-34-15.222656-34-34s15.222656-34 34-34h265.871094zm-236-82v-326h112.609375l11.105469 13.300781c-6.035156 10.066407-10.632813 20.929688-13.660156 32.269531l-26.949219 2.601563c-3.539063.359375-6.203125 3.386719-6.101563 6.945313v43.242187c-.101562 3.558594 2.558594 6.597656 6.101563 6.964844l27.039062 2.625c2.945313 11.386719 7.527344 22.285156 13.597657 32.355469l-17.28125 20.808593c-2.3125 2.78125-2.125 6.867188.429687 9.421875l30.5625 30.5c2.554687 2.550782 6.628906 2.738282 9.410156.4375l20.859375-17.300781c10.097656 6.039063 20.992188 10.632813 32.363282 13.648437l2.625 26.960938c.351562 3.566406 3.378906 6.273438 6.96875 6.21875h43.296874c1.929688 0 4.019532-.554688 5.019532-1.832031v96.832031zm372-233.988281-25.5625 2.488281c-3.027344.292969-5.53125 2.484375-6.21875 5.449219-2.96875 13.207031-8.292969 25.769531-15.71875 37.089843-1.675781 2.566407-1.492188 5.921876.460938 8.285157l16.421874 19.816406-21.546874 21.5-19.824219-16.441406c-2.375-1.96875-5.757813-2.152344-8.332031-.449219-11.269532 7.46875-23.839844 12.753906-37.0625 15.582031-2.964844.589844-5.195313 3.042969-5.5 6.050781l-2.488282 25.617188h-30.597656l-2.492188-25.617188c-.296874-3.023437-2.53125-5.5-5.507812-6.109374-13.21875-2.910157-25.796875-8.199219-37.128906-15.601563-2.566406-1.644531-5.90625-1.4375-8.25.515625l-19.824219 16.445312-21.542969-21.496093 16.429688-19.8125c1.972656-2.378907 2.152344-5.765625.441406-8.339844-7.480469-11.246094-12.785156-23.796875-15.640625-37-.546875-2.941406-2.964844-5.171875-5.941406-5.476563l-25.574219-2.5v-30.53125l25.574219-2.5c2.988281-.300781 5.4375-2.507812 6.046875-5.449218 2.933594-13.203125 8.230468-25.765625 15.625-37.089844 1.667968-2.574219 1.464844-5.933594-.5-8.289062l-16.445313-19.808594 21.535157-21.5 19.816406 16.4375c2.375 1.96875 5.757812 2.148437 8.328125.449218 11.269531-7.464843 23.84375-12.753906 37.0625-15.582031 2.996093-.695312 5.210937-3.230469 5.5-6.292969l2.488281-25.851562h30.597656l2.492188 25.855469c.292968 3.054687 2.515625 5.570312 5.507812 6.234375 13.222656 2.933594 25.800782 8.238281 37.128906 15.660156 2.5625 1.652344 5.898438 1.457031 8.25-.484375l19.792969-16.398437 21.222657 21.445312-16.453126 19.839844c-1.972656 2.378906-2.148437 5.773437-.4375 8.34375 7.480469 11.25 12.785157 23.800781 15.636719 37 .707031 2.992187 3.242188 5.195312 6.300781 5.480468l25.929688 2.5zm0 0" data-original="#000000" class="active-path" data-old_color="#ffffff" fill="#ffffff"/><path d="m309.175781 59.648438c-52.503906.070312-95.011719 42.679687-94.964843 95.179687.050781 52.503906 42.636718 95.03125 95.136718 95.007813 52.503906-.023438 95.050782-42.59375 95.050782-95.09375-.09375-52.53125-42.691407-95.070313-95.222657-95.09375zm0 176.1875c-44.769531-.074219-81.011719-36.414063-80.964843-81.183594.050781-44.769532 36.371093-81.03125 81.140624-81.007813 44.769532.027344 81.050782 36.328125 81.046876 81.097657-.085938 44.800781-36.421876 81.078124-81.222657 81.09375zm0 0" data-original="#000000" class="active-path" data-old_color="#ffffff" fill="#ffffff"/></g> </svg>
